<?xml version="1.0" standalone="no"?>
<!DOCTYPE svg PUBLIC "-//W3C//DTD SVG 20010904//EN"
 "http://www.w3.org/TR/2001/REC-SVG-20010904/DTD/svg10.dtd">
<svg version="1.0" xmlns="http://www.w3.org/2000/svg"
 width="900.000000pt" height="900.000000pt" viewBox="0 0 900.000000 900.000000"
 preserveAspectRatio="xMidYMid meet">
<metadata>
Created by potrace 1.11, written by Peter Selinger 2001-2013
</metadata>
<g transform="translate(0.000000,900.000000) scale(0.100000,-0.100000)"
fill="#000000" stroke="none">
<path d="M6170 8509 c-43 -11 -68 -17 -98 -23 -48 -10 -180 -61 -269 -101 -89
-42 -113 -44 -113 -10 0 19 -63 77 -103 95 -83 38 -181 11 -334 -92 -40 -26
-77 -48 -83 -48 -5 0 -10 -4 -10 -10 0 -5 -3 -9 -7 -8 -5 1 -21 -5 -38 -12
-45 -19 -107 -16 -161 9 -60 29 -77 33 -141 36 -80 5 -122 -15 -233 -106 -164
-135 -357 -228 -507 -244 -50 -6 -199 -6 -243 0 -73 9 -113 16 -121 21 -5 3
-9 1 -9 -4 0 -26 324 -170 420 -186 19 -4 49 -9 65 -12 17 -3 65 -5 108 -5 42
1 77 -1 77 -3 0 -7 -102 -54 -133 -61 -13 -4 -32 -8 -43 -10 -10 -2 -19 -4
-19 -5 0 -4 -68 -9 -125 -11 -73 -1 -169 10 -222 27 -42 13 -7 -14 64 -49 92
-46 211 -77 308 -81 65 -2 209 20 313 49 19 5 18 2 -9 -22 -54 -49 -74 -63
-89 -63 -7 0 -17 -5 -21 -11 -21 -34 -195 -85 -286 -85 -37 1 -64 -2 -60 -6
14 -13 100 -46 106 -41 3 4 6 2 6 -3 0 -12 10 -13 137 -18 84 -3 115 0 180 19
82 24 145 47 153 55 7 7 49 30 54 30 3 0 -11 -31 -30 -69 -19 -38 -47 -116
-62 -174 -31 -120 -49 -148 -112 -175 -50 -21 -152 -21 -176 -1 -29 24 -24 0
6 -35 31 -34 89 -76 120 -85 39 -11 110 -3 145 17 47 28 48 28 39 -10 -8 -37
-15 -78 -15 -93 -2 -39 17 -129 36 -175 40 -96 46 -164 25 -253 -6 -23 -12
-50 -15 -60 -12 -51 -75 -155 -122 -203 -30 -30 -58 -54 -63 -54 -6 0 -10 -4
-10 -9 0 -12 77 21 145 62 55 34 64 41 114 87 18 17 35 29 38 26 10 -9 -82
-168 -123 -212 -6 -7 -21 -25 -35 -40 -24 -29 -85 -79 -123 -101 -18 -11 -19
-12 -3 -13 10 0 33 7 52 14 19 8 35 13 35 10 0 -7 92 41 166 86 35 22 64 36
64 30 0 -5 -16 -26 -35 -47 -62 -67 -165 -229 -165 -260 0 -7 -4 -13 -8 -13
-11 0 -34 -102 -36 -162 -2 -27 -2 -48 -1 -48 1 0 23 35 48 78 54 94 139 179
219 222 33 18 61 30 64 28 2 -3 -19 -28 -46 -57 -52 -55 -105 -145 -95 -161 4
-6 3 -10 -2 -10 -4 0 -9 -21 -11 -47 -7 -120 -41 -178 -132 -220 -24 -11 -23
-11 15 -11 84 0 194 48 252 111 21 23 51 68 67 100 16 32 31 55 34 52 7 -7 18
-149 12 -165 -1 -3 -3 -16 -6 -30 -7 -42 -36 -112 -68 -165 -63 -105 -232
-250 -371 -320 -33 -16 -62 -32 -65 -35 -6 -7 -177 -80 -185 -80 -8 0 -24 -7
-165 -73 -219 -101 -410 -249 -512 -395 -39 -56 -92 -173 -107 -236 -13 -54
-13 -228 0 -263 8 -22 6 -23 -34 -24 -23 0 -62 0 -87 2 -25 1 -53 2 -62 3 -10
0 -18 4 -18 9 0 4 -5 5 -11 2 -15 -10 -140 40 -181 72 -46 38 -108 107 -108
122 0 4 -7 23 -17 41 -20 41 -27 175 -11 222 16 49 63 103 105 124 21 10 40
19 43 19 3 1 23 9 45 19 21 9 46 18 55 20 51 10 174 73 207 106 31 30 54 74
60 113 l5 29 -36 -36 c-64 -66 -111 -80 -276 -80 -141 -1 -146 -2 -193 -29
-142 -84 -214 -259 -182 -442 4 -22 9 -43 12 -47 2 -5 0 -8 -6 -8 -18 0 -105
128 -110 163 -1 4 -1 8 -2 10 -23 75 -30 231 -14 312 6 30 10 55 8 55 -8 0
-44 -85 -64 -155 -18 -62 -23 -105 -23 -190 0 -98 3 -116 27 -169 15 -33 26
-61 23 -63 -10 -11 -121 121 -151 180 -19 37 -32 67 -30 67 3 0 -2 17 -9 38
-23 59 -39 179 -38 282 1 80 7 155 12 155 1 0 3 7 5 15 8 38 49 128 73 160 67
90 164 146 257 148 93 2 118 -15 205 -145 98 -148 139 -191 203 -215 l52 -20
-32 34 c-32 33 -92 153 -97 193 -1 6 -8 37 -15 70 -7 33 -14 65 -15 70 -1 6
-5 16 -9 23 -5 6 -6 12 -2 12 9 0 -36 83 -68 123 -31 40 -119 97 -149 97 -34
0 -18 17 45 49 34 18 104 55 155 82 92 50 94 50 181 50 97 -1 139 -6 225 -27
66 -17 185 -74 205 -98 8 -9 17 -16 22 -16 13 0 88 -80 116 -123 13 -22 27
-36 30 -33 8 8 -25 111 -52 166 -61 121 -168 213 -292 252 -40 13 -73 26 -73
29 0 12 46 26 65 19 11 -4 39 -10 62 -13 167 -24 346 -106 453 -208 42 -41 74
-84 107 -147 21 -40 23 -43 19 -17 -11 73 -67 205 -120 284 -72 109 -182 189
-283 207 -32 6 -39 11 -29 21 8 9 216 10 277 1 115 -16 252 -93 314 -177 19
-25 39 -51 43 -56 10 -12 63 -141 67 -165 2 -8 4 -21 4 -29 1 -18 14 -6 18 17
2 9 4 58 5 107 1 147 -53 285 -145 369 -63 57 -177 119 -241 132 -10 2 -33 8
-50 14 -17 5 -46 11 -64 12 -19 1 -36 6 -38 10 -3 5 28 47 69 96 74 88 152
197 164 229 4 10 16 34 28 53 12 19 27 49 33 65 6 17 20 54 31 84 11 29 23 70
26 90 41 237 5 408 -122 584 -36 49 -68 67 -35 20 99 -146 115 -397 34 -563
-17 -36 -82 -141 -92 -150 -3 -3 -16 -18 -28 -34 -12 -16 -23 -27 -23 -25 -4
14 -3 241 1 244 6 4 4 204 -4 300 -7 95 -32 222 -63 319 -27 87 -106 260 -123
271 -6 4 -8 10 -5 14 2 5 -4 16 -15 26 -11 10 -20 24 -20 32 0 7 -3 13 -7 13
-5 0 -19 17 -33 37 -39 58 -175 183 -199 183 -6 0 -11 4 -11 8 0 7 -62 43 -80
47 -3 0 -14 6 -25 12 -20 11 -143 51 -180 59 -11 2 -33 6 -49 10 -95 21 -403
20 -508 -2 -13 -2 -36 -6 -53 -8 -96 -14 -346 -66 -367 -77 -10 -6 -18 -7 -18
-3 0 3 -6 1 -13 -5 -8 -6 -16 -9 -19 -6 -2 3 -29 -2 -58 -11 -66 -19 -75 -22
-175 -38 -89 -15 -305 -14 -345 2 -14 5 -28 10 -33 10 -57 3 -237 81 -275 119
-7 7 -16 13 -20 13 -4 0 -27 18 -52 40 -24 21 -47 37 -49 34 -6 -6 74 -164
101 -198 45 -58 141 -146 158 -146 5 0 10 -3 10 -7 0 -10 94 -54 165 -78 31
-10 94 -18 157 -19 32 -1 58 -5 58 -9 0 -5 4 -6 9 -3 5 3 37 9 72 12 54 5 143
22 209 39 8 2 37 8 64 15 27 6 54 14 60 17 5 4 19 8 30 9 12 1 66 14 121 28
55 15 134 34 175 42 41 9 84 18 95 20 11 3 34 6 50 9 17 2 55 7 85 11 30 4
114 7 185 6 165 -1 162 -1 210 -13 22 -6 51 -13 64 -16 13 -2 37 -11 52 -19
16 -8 30 -13 32 -12 2 2 33 -15 70 -36 157 -92 267 -247 326 -458 22 -77 35
-148 27 -148 -2 0 -22 33 -44 73 -65 117 -155 229 -245 304 -44 36 -257 134
-257 118 0 -2 -11 0 -24 5 -43 16 -138 25 -271 24 -167 0 -242 -9 -425 -50
-36 -8 -69 -15 -75 -16 -5 0 -21 -4 -34 -9 -13 -5 -40 -12 -60 -15 -20 -3 -40
-9 -46 -12 -5 -4 -17 -8 -25 -9 -54 -9 -326 -105 -615 -218 -205 -79 -226 -87
-237 -90 -5 -2 -10 -4 -13 -5 -3 -1 -8 -3 -12 -4 -56 -14 -107 -25 -158 -36
-43 -9 -234 -7 -275 4 -14 3 -34 8 -45 11 -65 15 -265 108 -273 127 -2 4 -8 8
-13 8 -5 0 -31 16 -58 35 l-50 34 16 -36 c37 -90 142 -219 226 -278 73 -52
176 -94 295 -122 46 -11 286 -10 337 1 31 7 66 14 100 20 73 14 232 66 313
102 29 13 54 24 56 24 2 0 55 24 117 54 63 30 150 70 194 91 83 38 272 116
290 119 6 1 24 7 40 13 31 13 119 36 213 57 11 2 43 7 73 11 30 4 56 8 59 10
3 2 12 0 20 -5 10 -6 6 -10 -16 -15 -201 -45 -394 -155 -554 -315 -152 -152
-237 -303 -244 -431 -4 -67 9 -135 30 -160 8 -8 14 -20 14 -26 0 -24 142 -133
180 -138 3 0 25 -6 50 -12 25 -7 81 -14 125 -17 95 -5 130 -11 170 -26 47 -18
116 -80 133 -119 21 -50 26 -129 11 -182 -23 -82 -22 -87 16 -44 94 109 111
244 48 385 -23 50 -94 144 -132 175 -14 11 -32 28 -40 37 -9 10 -21 18 -27 18
-7 0 -14 4 -16 8 -1 4 -32 28 -68 52 -196 135 -207 201 -75 429 23 40 131 137
182 163 40 21 107 47 136 54 4 1 8 2 10 4 12 10 119 21 227 25 98 3 195 -11
160 -23 -185 -60 -308 -125 -392 -204 -68 -66 -103 -124 -123 -210 -43 -185
38 -322 247 -420 93 -44 145 -111 154 -198 3 -38 4 -38 20 0 21 48 19 121 -4
167 -11 21 -46 63 -79 94 -82 79 -133 136 -133 149 0 5 -5 10 -12 10 -6 0 -9
3 -6 6 4 3 0 17 -7 30 -26 51 -4 157 48 234 128 187 348 257 537 169 69 -32
70 -32 113 -118 24 -47 50 -102 56 -121 7 -19 17 -44 21 -55 60 -145 88 -350
68 -504 -9 -68 -48 -193 -76 -246 -9 -16 -15 -33 -14 -37 1 -5 -2 -8 -7 -8 -5
0 -13 -10 -17 -22 -9 -28 -123 -142 -199 -198 -33 -25 -62 -48 -65 -51 -3 -3
-9 -8 -15 -10 -5 -2 -42 -25 -82 -52 -39 -26 -76 -47 -82 -47 -6 0 -11 -4 -11
-10 0 -5 -4 -10 -9 -10 -4 0 -46 -22 -93 -49 -47 -27 -95 -52 -106 -55 -12 -4
-22 -12 -22 -17 0 -5 -7 -9 -15 -9 -13 0 -96 -42 -121 -61 -6 -5 -13 -7 -16
-4 -3 3 -11 -1 -18 -10 -7 -8 -16 -15 -21 -15 -5 0 -41 -20 -81 -45 -40 -25
-75 -45 -79 -45 -4 0 -9 15 -12 33 -3 17 -8 48 -12 67 -16 83 -10 162 18 220
32 67 129 114 231 111 50 -1 50 0 24 13 -29 15 -126 32 -168 29 -62 -5 -112
-27 -155 -70 -25 -24 -45 -50 -45 -58 0 -8 -4 -15 -8 -15 -12 0 -46 -117 -58
-198 -5 -39 -5 -241 1 -279 2 -18 0 -35 -6 -38 -5 -4 -9 0 -9 7 0 7 -12 40
-26 73 -14 33 -26 65 -28 70 -6 29 -112 224 -126 235 -4 3 -13 16 -20 30 -37
70 -165 213 -270 301 -58 48 -210 153 -210 145 0 -3 -24 8 -53 25 l-52 30 42
-41 c23 -22 41 -40 39 -40 -1 0 22 -26 53 -57 109 -112 210 -239 264 -333 26
-46 70 -150 63 -150 -3 0 -37 18 -78 40 -66 35 -190 87 -228 95 -8 2 -42 10
-75 18 -112 28 -296 39 -400 24 -89 -13 -119 -19 -156 -32 -21 -8 -39 -12 -39
-8 0 3 -7 0 -15 -7 -8 -7 -15 -9 -15 -4 0 4 -5 3 -12 -4 -7 -7 -20 -12 -30
-12 -10 0 -18 -5 -18 -11 0 -7 9 -9 23 -6 43 11 249 7 347 -7 72 -11 191 -37
240 -53 25 -8 52 -16 60 -18 22 -5 156 -63 195 -85 127 -71 285 -194 285 -221
0 -4 -26 5 -57 20 -150 74 -327 110 -508 105 -104 -3 -125 -5 -184 -18 -76
-17 -241 -82 -241 -96 0 -4 17 -4 38 -1 80 14 308 1 447 -26 92 -17 244 -65
295 -93 19 -10 46 -24 59 -30 74 -34 207 -167 247 -248 14 -29 24 -56 21 -58
-3 -3 -23 6 -44 19 -64 41 -211 61 -303 42 -14 -3 -41 -8 -60 -11 -19 -4 -44
-8 -55 -10 -109 -21 -298 -23 -383 -4 -130 29 -272 120 -337 216 -47 69 -25
17 25 -60 68 -104 131 -170 217 -226 100 -66 173 -84 340 -85 73 0 133 -3 133
-7 0 -4 10 -4 23 0 12 4 36 6 52 5 195 -13 188 -12 262 -37 37 -12 69 -34 108
-72 30 -30 55 -59 55 -64 0 -12 5 -13 -56 4 -71 19 -168 17 -228 -4 -28 -9
-53 -17 -56 -17 -3 -1 -30 -8 -60 -18 -34 -10 -100 -18 -170 -21 -95 -3 -125
0 -175 17 -33 10 -64 24 -69 29 -6 6 -15 10 -21 10 -17 0 86 -89 155 -135 106
-69 163 -81 279 -58 103 19 201 16 268 -8 31 -12 63 -27 71 -33 35 -26 111
-108 166 -177 61 -76 140 -148 195 -175 17 -8 33 -19 36 -23 2 -5 -25 -16 -60
-26 -36 -9 -91 -33 -122 -52 -88 -52 -179 -147 -105 -109 38 20 155 54 205 61
94 12 107 13 107 6 0 -3 -12 -14 -27 -23 -77 -46 -162 -153 -194 -242 -28 -82
-32 -103 -34 -231 -2 -127 7 -187 20 -130 17 77 64 196 103 264 23 41 46 78
50 81 4 3 20 22 35 42 44 59 198 170 214 154 3 -3 1 -11 -4 -18 -11 -15 -55
-143 -70 -204 -12 -52 -15 -291 -4 -299 5 -2 11 12 14 33 23 181 149 372 296
451 48 25 155 61 183 61 4 0 -15 -23 -42 -51 -26 -28 -60 -74 -74 -102 -36
-76 -41 -95 -50 -213 -12 -143 -23 -226 -36 -260 -5 -13 -7 -24 -5 -24 9 0
-55 -160 -81 -202 -31 -51 -149 -168 -170 -168 -8 0 -14 -4 -14 -9 0 -5 15 -4
35 2 19 6 35 14 35 19 0 4 7 8 16 8 26 0 120 68 172 125 65 70 113 177 137
300 8 39 53 221 66 265 7 25 13 47 13 50 5 25 54 106 80 131 38 35 96 72 96
61 0 -5 -12 -37 -27 -73 -24 -57 -27 -78 -29 -199 -2 -150 -11 -251 -26 -290
-5 -14 -9 -25 -8 -25 1 0 -3 -13 -9 -30 -15 -42 -40 -86 -65 -114 l-21 -25 30
19 c17 10 39 26 50 36 11 11 29 27 41 36 39 34 92 112 108 160 8 26 17 80 20
118 10 127 32 196 82 262 21 28 103 93 117 93 3 0 13 -13 24 -29 19 -31 111
-129 159 -171 16 -13 58 -44 94 -69 90 -61 136 -107 160 -159 53 -112 4 -238
-121 -318 -53 -33 -158 -73 -212 -80 -44 -5 -63 -14 -30 -14 44 0 180 -90 167
-111 -2 -5 -14 -5 -26 0 -24 9 -128 -5 -142 -20 -6 -6 -4 -9 6 -9 49 0 134
-74 157 -137 18 -48 18 -105 0 -111 -5 -2 -9 -9 -9 -16 0 -32 -126 -42 -208
-15 -72 23 -160 70 -201 108 -23 21 -44 35 -46 31 -3 -5 -2 -10 2 -12 5 -1 19
-23 32 -48 30 -54 128 -152 189 -187 23 -14 41 -28 38 -31 -12 -11 -108 -1
-159 18 -60 23 -156 82 -201 124 -15 15 -30 25 -33 23 -7 -8 43 -104 81 -154
40 -53 72 -86 130 -128 33 -25 35 -30 20 -35 -49 -17 -164 32 -230 97 -25 25
-47 44 -49 42 -2 -2 8 -31 22 -64 48 -115 116 -175 242 -216 115 -37 123 -72
34 -166 -55 -58 -73 -88 -73 -122 0 -21 50 -90 66 -91 6 0 19 -9 28 -19 45
-49 190 -96 248 -80 65 17 155 -8 207 -59 62 -60 67 -109 26 -242 -4 -11 -20
-49 -62 -145 -69 -155 -66 -215 18 -354 38 -64 180 -187 226 -196 10 -2 18 -4
18 -5 0 -1 13 -4 30 -6 16 -3 31 -7 34 -9 2 -2 25 7 52 20 29 15 50 21 54 15
13 -21 96 -50 142 -50 67 0 80 11 40 35 -53 31 -79 74 -82 136 -3 87 -40 120
-160 142 -108 21 -135 47 -131 127 9 155 175 163 372 19 71 -52 96 -86 89
-120 -20 -91 5 -166 67 -203 42 -25 81 -26 127 -2 18 10 31 10 59 1 59 -21
135 -9 196 31 36 24 38 28 21 34 -11 4 -23 6 -26 4 -3 -2 -24 12 -46 31 -28
23 -40 42 -39 57 1 13 0 28 -3 33 -3 6 -7 19 -8 29 -6 36 -62 75 -126 87 -81
16 -115 48 -121 112 -2 26 0 47 5 47 5 0 9 7 9 15 0 18 36 42 71 49 47 8 121
-36 179 -105 84 -101 92 -105 142 -84 28 11 41 11 88 -1 30 -8 82 -17 115 -20
33 -3 63 -8 67 -10 4 -2 9 0 13 6 9 14 -28 73 -94 149 -42 48 -56 72 -56 97
-1 43 -31 105 -61 127 -39 29 -103 24 -179 -13 -100 -49 -171 -32 -182 42 -10
67 160 187 256 180 33 -2 83 -38 109 -78 22 -34 22 -34 95 -32 70 3 73 2 108
-32 20 -19 49 -53 64 -75 l27 -40 -5 80 c-5 78 -23 145 -39 145 -4 0 -8 6 -8
14 0 7 -16 26 -35 41 -20 14 -35 32 -34 38 1 7 -1 21 -5 32 -4 11 -12 31 -17
45 -53 139 -273 158 -404 36 -100 -93 -191 -136 -320 -151 -100 -11 -296 118
-402 265 -99 137 -86 252 36 314 152 79 324 60 424 -47 35 -38 97 -130 97
-146 0 -15 24 -14 92 4 168 43 279 147 324 303 17 57 22 190 11 267 -8 54 -46
175 -63 200 -8 11 -14 23 -14 27 0 8 65 -18 87 -35 36 -28 86 -84 99 -109 20
-39 24 -35 17 20 -6 54 -39 150 -59 173 -8 8 -14 20 -14 26 0 18 -102 111
-147 135 -24 13 -43 26 -43 30 0 3 15 11 34 18 60 20 191 129 174 146 -3 2
-28 -1 -56 -7 -112 -24 -262 -14 -372 24 -108 37 -232 139 -250 206 -13 49 -7
127 15 184 l16 43 72 -35 c39 -19 87 -38 107 -42 19 -4 89 -21 155 -38 66 -17
131 -34 145 -37 38 -8 55 -12 55 -14 0 -1 9 -3 20 -4 34 -4 138 -37 169 -53
47 -24 130 -113 155 -167 31 -64 32 -128 1 -192 -13 -27 -26 -51 -29 -54 -3
-3 -17 -17 -30 -32 l-24 -27 34 10 c41 12 139 20 151 13 5 -3 -8 -17 -29 -31
-37 -25 -54 -43 -73 -75 -8 -13 -6 -15 10 -11 11 3 22 8 24 12 8 13 116 2 148
-15 56 -29 81 -78 65 -126 -11 -34 -100 -92 -176 -114 -31 -9 -86 -17 -123
-17 -38 -1 -68 -4 -68 -7 0 -23 182 -58 258 -50 30 3 55 3 58 -1 6 -10 -45
-45 -91 -65 -49 -20 -106 -29 -196 -29 -84 0 -84 -6 3 -45 58 -25 87 -31 193
-39 l90 -6 -45 -27 c-65 -39 -151 -54 -212 -37 -41 11 -34 -4 15 -32 85 -49
181 -57 267 -24 112 43 144 25 134 -75 -12 -115 -9 -127 28 -150 26 -15 45
-18 107 -15 42 2 86 6 97 9 39 8 101 45 126 73 38 44 86 66 147 68 64 2 101
-13 129 -52 22 -32 54 -122 73 -203 34 -151 50 -183 112 -225 65 -44 146 -67
242 -68 50 0 99 1 110 4 39 9 83 43 104 79 17 31 28 39 63 45 24 4 46 8 49 7
3 -1 26 17 50 39 24 21 39 39 34 40 -6 1 -26 0 -47 -1 -42 -2 -88 20 -115 53
-44 57 -84 59 -180 12 -39 -19 -81 -35 -93 -35 -57 0 -106 75 -93 140 14 70
122 120 275 126 96 4 115 -5 148 -69 7 -15 28 -37 46 -47 68 -43 136 -27 179
39 14 23 31 41 39 41 30 0 96 61 120 112 14 29 24 54 22 55 -1 2 -17 -2 -35
-8 -46 -16 -94 -5 -130 30 -18 17 -37 31 -44 32 -7 0 -22 2 -34 3 -12 1 -44
-8 -70 -21 -74 -38 -106 -38 -148 -2 -26 24 -35 39 -35 63 0 38 32 80 72 95
27 10 124 8 168 -3 63 -17 82 -15 106 9 13 13 24 28 24 33 0 5 21 18 48 29 26
11 74 37 107 58 l60 39 -43 18 c-24 11 -75 25 -115 32 -57 10 -79 19 -106 44
-32 29 -72 49 -96 47 -35 -2 -78 -33 -105 -74 -16 -26 -30 -52 -30 -57 0 -18
-62 -74 -81 -74 -42 0 -88 40 -82 70 1 3 4 23 7 45 8 53 56 144 89 169 28 21
67 24 132 12 35 -7 44 -4 66 16 14 14 28 30 31 38 5 16 89 21 133 8 62 -19 68
-19 54 0 -58 76 -136 122 -212 126 -12 1 -37 12 -55 26 -19 14 -37 25 -40 26
-4 0 -14 4 -22 7 -97 42 -250 -66 -274 -194 -2 -13 -7 -42 -11 -64 -17 -92
-95 -212 -170 -261 -121 -79 -470 93 -555 273 -67 144 -35 261 86 315 107 47
209 15 288 -90 l40 -53 37 59 c116 182 73 372 -115 516 -56 42 -157 96 -181
96 -27 0 -16 19 18 28 34 10 110 8 162 -3 17 -4 40 -8 52 -10 12 -2 28 -7 35
-11 31 -20 39 -10 13 14 -89 81 -192 120 -305 117 -41 -1 -81 -4 -88 -6 -10
-3 -14 14 -17 71 -2 70 -19 130 -35 130 -4 0 -6 -10 -6 -22 1 -13 -4 -35 -11
-50 -7 -16 -10 -28 -6 -28 11 0 -50 -60 -82 -80 -26 -16 -126 -38 -148 -32 -4
1 -24 4 -45 6 -99 9 -151 21 -197 44 -51 25 -126 95 -180 167 -85 116 -215
219 -355 284 -36 17 -63 31 -60 31 27 7 91 20 130 26 61 10 192 43 280 70 47
14 90 26 95 28 15 3 153 56 200 76 137 60 170 75 173 82 5 10 59 10 64 1 6
-15 153 -119 211 -151 33 -18 77 -33 104 -35 26 -3 49 -10 51 -16 4 -13 -32
-49 -92 -89 l-40 -27 53 -3 c29 -2 77 2 107 8 29 6 57 12 61 12 5 1 22 7 40
15 45 18 56 17 44 -5 -12 -22 -101 -112 -111 -112 -4 0 -11 -7 -14 -16 -5 -13
4 -14 62 -10 75 5 91 8 110 19 6 5 12 6 12 3 0 -3 26 8 57 24 31 16 58 28 59
27 9 -8 -37 -76 -88 -131 l-59 -65 38 6 c72 11 147 46 193 89 54 51 93 68 136
59 76 -14 89 -77 44 -225 -35 -118 -39 -156 -21 -220 20 -70 65 -99 159 -104
34 -2 57 -9 72 -24 46 -43 91 -56 180 -52 l45 2 -32 14 c-48 21 -67 55 -58
107 10 63 9 95 -6 113 -7 8 -45 31 -85 50 -57 27 -74 40 -85 66 -39 93 -27
167 32 210 36 27 107 26 159 -3 62 -35 94 -101 104 -211 3 -32 10 -66 16 -78
16 -29 63 -50 115 -50 36 0 55 -7 83 -29 42 -32 66 -41 137 -48 l50 -4 -27 23
c-41 36 -52 67 -52 154 -1 79 -2 81 -36 112 -19 18 -38 32 -42 32 -8 0 -97 59
-116 77 -7 7 -19 27 -26 45 -17 40 -5 72 35 88 52 22 80 1 162 -122 71 -106
104 -129 190 -132 67 -3 99 -18 154 -73 18 -18 34 -29 37 -25 8 14 -1 132 -12
144 -6 7 -11 18 -12 23 -1 6 -8 25 -15 43 -8 18 -12 48 -10 66 4 29 0 39 -27
61 -44 37 -73 47 -173 61 -163 22 -251 116 -201 212 30 57 110 112 163 112 21
0 40 -12 68 -41 71 -73 113 -96 175 -96 30 0 77 8 103 18 44 18 50 18 72 3 27
-17 75 -106 75 -138 0 -20 0 -20 13 -1 8 11 19 44 24 73 16 85 -10 169 -69
220 -16 15 -29 39 -33 63 -9 54 -62 129 -108 152 -49 25 -92 32 -198 31 -74 0
-92 -4 -131 -27 -25 -15 -68 -55 -96 -89 -75 -94 -92 -111 -158 -159 l-60 -45
-105 2 c-97 1 -223 10 -272 20 -12 2 -47 9 -77 15 -30 7 -61 12 -67 12 -7 0
-13 4 -13 9 0 5 -4 7 -9 4 -7 -5 -102 21 -151 41 -8 4 -17 7 -20 8 -59 16
-214 91 -293 142 -74 47 -73 47 -130 94 l-38 32 42 41 c98 97 180 265 191 394
2 22 22 7 40 -29 21 -42 26 -67 28 -139 l1 -55 19 38 c49 100 69 218 48 290
-13 43 -10 47 29 53 81 12 163 35 163 46 0 4 6 8 14 8 35 0 117 60 152 109 16
24 25 30 28 20 2 -8 9 -29 15 -48 6 -19 11 -51 11 -71 0 -20 3 -40 6 -43 11
-10 94 132 93 158 0 3 5 31 12 61 l13 57 18 -23 c10 -12 18 -31 18 -42 0 -11
4 -27 10 -37 5 -10 10 -36 11 -58 3 -47 15 -47 45 0 35 53 53 115 58 195 2 29
5 55 8 58 9 9 75 -131 83 -175 4 -23 10 -41 15 -41 5 0 17 26 27 58 18 57 22
130 9 182 -17 64 -15 88 7 121 50 74 120 58 227 -50 111 -113 175 -154 245
-156 45 -1 115 49 144 102 6 13 24 26 39 30 66 16 126 64 154 123 16 32 16 58
0 34 -26 -41 -102 -38 -147 5 -61 59 -99 60 -178 3 -72 -52 -149 -50 -229 5
-33 23 -63 70 -60 97 5 50 36 97 83 124 64 37 131 32 257 -20 95 -39 132 -31
177 36 23 34 42 50 77 63 41 14 138 94 138 112 0 3 -33 6 -74 6 -65 0 -78 3
-103 25 -15 14 -38 31 -50 37 -26 15 -99 9 -121 -10 -8 -7 -17 -11 -19 -9 -2
1 -27 -10 -56 -25 -94 -48 -197 -31 -197 33 0 62 34 81 155 83 167 4 213 20
260 92 33 52 91 88 156 96 21 3 39 9 39 13 0 23 -114 68 -192 76 -27 2 -63 13
-81 24 -17 11 -43 20 -56 20 -39 0 -102 -44 -171 -120 -75 -83 -126 -113 -192
-114 -87 -1 -147 74 -143 179 3 71 21 91 94 106 62 12 130 37 148 55 25 24 54
87 60 131 4 32 13 49 30 60 31 21 137 20 171 -1 25 -15 22 1 -6 30 -24 27 -90
78 -102 80 -3 0 -23 5 -45 11 -50 14 -67 14 -132 2 -38 -8 -58 -7 -75 2 -35
19 -147 15 -188 -5 -48 -24 -125 -110 -157 -174 -39 -80 -37 -147 9 -239 35
-69 52 -125 64 -208 3 -22 8 -43 9 -46 11 -16 -105 -211 -154 -260 -9 -8 -32
-33 -51 -55 -43 -47 -128 -119 -193 -163 -70 -48 -217 -117 -267 -126 -3 -1
-14 -4 -25 -8 -81 -26 -305 -45 -305 -24 0 4 -6 23 -14 42 -8 19 -14 35 -13
36 1 0 22 2 48 4 50 3 97 22 147 60 41 29 110 41 168 28 24 -6 44 -7 44 -3 0
21 -152 81 -167 66 -3 -3 -16 -1 -29 4 -13 5 -25 6 -28 2 -12 -20 -169 2 -208
30 -39 27 -35 34 16 30 45 -4 72 6 191 70 48 26 151 30 166 7 5 -8 9 -9 9 -3
0 6 -13 22 -29 37 -74 65 -171 88 -253 60 -23 -8 -69 -20 -102 -27 -55 -11
-66 -11 -101 5 -22 10 -38 18 -35 19 3 1 27 4 55 6 58 6 121 31 156 65 33 30
68 98 70 136 3 38 -10 93 -22 93 -6 0 -8 4 -4 9 3 5 1 12 -5 16 -6 4 -9 -9 -8
-34 2 -49 -25 -103 -61 -123 -72 -41 -220 -45 -317 -8 -28 11 -26 22 4 26 122
18 166 48 188 128 15 55 9 61 -25 26 -44 -47 -87 -60 -182 -56 -46 2 -97 9
-114 16 -16 7 -36 14 -43 16 -16 3 -27 12 -21 18 2 2 25 7 50 10 54 7 104 30
136 62 13 13 23 25 23 27 0 2 -39 2 -87 1 -108 -3 -199 20 -278 69 -29 17
-138 127 -132 133 2 2 26 -5 53 -17 37 -16 69 -21 129 -21 79 1 123 6 133 17
3 3 -5 5 -17 5 -31 0 -138 58 -161 87 -18 23 -50 115 -50 143 0 7 18 -8 41
-34 51 -58 115 -96 168 -100 61 -5 69 8 19 33 -49 23 -90 62 -95 89 -2 9 -5
55 -7 102 -3 95 -7 109 -48 161 -33 44 -34 49 -8 49 35 0 144 58 182 97 20 21
45 54 56 73 11 19 26 33 33 32 32 -8 107 -8 139 1 83 22 144 107 154 217 l6
55 -16 -30 c-53 -98 -161 -140 -252 -98 -21 9 -45 23 -54 31 -15 12 -18 11
-32 -15 -77 -143 -329 -148 -328 -6 0 42 10 83 21 83 4 0 17 9 28 19 27 25
108 49 154 45 20 -2 56 -10 80 -18 41 -14 44 -14 59 5 31 42 93 100 122 115
61 31 174 12 219 -38 9 -10 21 -18 27 -18 13 0 9 78 -8 139 -16 59 -88 130
-156 154 -55 18 -163 21 -224 6z"/>
</g>
</svg>
